<svg width="16" height="16" viewBox="0 0 16 16" fill="none" xmlns="http://www.w3.org/2000/svg">
<path fill-rule="evenodd" clip-rule="evenodd" d="M9.66667 3.83333C9.66667 5.67428 8.17428 7.16667 6.33333 7.16667C4.49238 7.16667 3 5.67428 3 3.83333C3 1.99238 4.49238 0.5 6.33333 0.5C8.17428 0.5 9.66667 1.99238 9.66667 3.83333ZM12.1667 12.1667C12.1667 14.0076 9.55499 15.5 6.33333 15.5C3.11167 15.5 0.5 14.0076 0.5 12.1667C0.5 10.3257 3.11167 8.83333 6.33333 8.83333C9.55499 8.83333 12.1667 10.3257 12.1667 12.1667ZM13 8.625C12.6548 8.625 12.375 8.34518 12.375 8L12.375 6.95833H11.3333C10.9882 6.95833 10.7083 6.67851 10.7083 6.33333C10.7083 5.98816 10.9882 5.70833 11.3333 5.70833H12.375V4.66667C12.375 4.32149 12.6548 4.04167 13 4.04167C13.3452 4.04167 13.625 4.32149 13.625 4.66667V5.70833H14.6667C15.0118 5.70833 15.2917 5.98816 15.2917 6.33333C15.2917 6.67851 15.0118 6.95833 14.6667 6.95833H13.625V8C13.625 8.34518 13.3452 8.625 13 8.625Z" fill="#8981DA"/>
</svg>
