<svg width="20" height="20" viewBox="0 0 20 20" fill="none" xmlns="http://www.w3.org/2000/svg">
<path fill-rule="evenodd" clip-rule="evenodd" d="M1.66675 7.33325C1.66675 5.12411 3.45761 3.33325 5.66675 3.33325H9.33341C11.5426 3.33325 13.3334 5.12411 13.3334 7.33325V12.6666C13.3334 14.8757 11.5426 16.6666 9.33341 16.6666H5.66675C3.45761 16.6666 1.66675 14.8757 1.66675 12.6666V7.33325ZM5.20842 9.99992C5.20842 9.65474 5.48824 9.37492 5.83342 9.37492H9.16675C9.51193 9.37492 9.79175 9.65474 9.79175 9.99992C9.79175 10.3451 9.51193 10.6249 9.16675 10.6249H5.83342C5.48824 10.6249 5.20842 10.3451 5.20842 9.99992ZM14.8743 12.9769L14.5834 12.6665V7.3332L14.8743 7.02287C16.1144 5.70017 18.3334 6.57768 18.3334 8.39076V11.609C18.3334 13.422 16.1144 14.2996 14.8743 12.9769Z" fill="#30E0A1"/>
</svg>
