<svg width="40" height="40" viewBox="0 0 40 40" fill="none" xmlns="http://www.w3.org/2000/svg">
<rect width="40" height="40" rx="20" fill="#F9FAFB"/>
<path d="M21.2767 12.2195L21.2819 12.2286L21.2876 12.2375C21.4244 12.4535 21.5 12.7099 21.5 13C21.5 13.8255 20.8322 14.5 20 14.5C19.1761 14.5 18.5 13.8239 18.5 13C18.5 12.7099 18.5756 12.4535 18.7124 12.2375L18.7181 12.2286L18.7233 12.2195L20 10.0021L21.2767 12.2195ZM20.5 18V18.5H21H26C27.3839 18.5 28.5 19.6161 28.5 21V30C28.5 30.2739 28.2739 30.5 28 30.5H12C11.7261 30.5 11.5 30.2739 11.5 30V21C11.5 19.6161 12.6161 18.5 14 18.5H19H19.5V18V16.5H20.5V18ZM27 29.5H27.5V29V26V25.5055L27.0056 25.5C26.2359 25.4915 25.5009 25.1838 24.9536 24.6364L23.8836 23.5664L23.5316 23.2145L23.1781 23.5648L22.0981 24.6348L22.0964 24.6364C20.9908 25.7421 19.0274 25.7503 17.9136 24.6364L16.8436 23.5664L16.4933 23.2162L16.1397 23.5632L15.0497 24.6332L15.0497 24.6332L15.0464 24.6364C14.4991 25.1838 13.7641 25.4915 12.9944 25.5L12.5 25.5055V26V29V29.5H13H27ZM26.9902 24.9999L27.5 25.0099V24.5V21C27.5 20.1739 26.8261 19.5 26 19.5H14C13.1739 19.5 12.5 20.1739 12.5 21V24.5V25.0099L13.0098 24.9999C13.6432 24.9875 14.2493 24.7388 14.6955 24.2817L16.4792 22.5063L18.2564 24.2836C19.1916 25.2187 20.798 25.2188 21.7333 24.2838C21.7334 24.2837 21.7335 24.2836 21.7336 24.2836L23.5192 22.5063L25.2942 24.2813C25.7534 24.7518 26.3613 24.9876 26.9902 24.9999Z" fill="#0D121C" stroke="#4D5761"/>
</svg>
