<svg width="40" height="40" viewBox="0 0 40 40" fill="none" xmlns="http://www.w3.org/2000/svg">
<rect width="40" height="40" rx="20" fill="#F9FAFB"/>
<path d="M26.1 26.6H26.6V26.1V25C26.6 24.7295 26.4457 24.5182 26.3307 24.3909C26.2013 24.2475 26.0306 24.1118 25.8421 23.986C25.4624 23.7325 24.9426 23.4745 24.3437 23.2435C23.1456 22.7814 21.5591 22.4 20 22.4C18.4409 22.4 16.8544 22.7814 15.6563 23.2435C15.0574 23.4745 14.5376 23.7325 14.1579 23.986C13.9695 24.1118 13.7987 24.2475 13.6693 24.3909C13.5543 24.5182 13.4 24.7295 13.4 25V26.1V26.6H13.9H26.1ZM22.6 16C22.6 14.5639 21.4361 13.4 20 13.4C18.5639 13.4 17.4 14.5639 17.4 16C17.4 17.4361 18.5639 18.6 20 18.6C21.4361 18.6 22.6 17.4361 22.6 16ZM16.5 16C16.5 14.0661 18.0661 12.5 20 12.5C21.9339 12.5 23.5 14.0661 23.5 16C23.5 17.9339 21.9339 19.5 20 19.5C18.0661 19.5 16.5 17.9339 16.5 16ZM12.5 25C12.5 24.5186 12.7372 24.06 13.2136 23.6202C13.6935 23.1773 14.3821 22.7882 15.1847 22.4666C16.7907 21.8233 18.7275 21.5 20 21.5C21.2725 21.5 23.2093 21.8233 24.8153 22.4666C25.6179 22.7882 26.3065 23.1773 26.7864 23.6202C27.2628 24.06 27.5 24.5186 27.5 25V27.5H12.5V25Z" fill="#0D121C" stroke="#4D5761"/>
</svg>
