<svg width="5" height="5" viewBox="0 0 5 5" fill="none" xmlns="http://www.w3.org/2000/svg">
<path d="M2.27699 4.39773C1.93324 4.39773 1.61932 4.31392 1.33523 4.14631C1.05114 3.97585 0.823864 3.74858 0.653409 3.46449C0.485795 3.1804 0.401989 2.86648 0.401989 2.52273C0.401989 2.17614 0.485795 1.86222 0.653409 1.58097C0.823864 1.29687 1.05114 1.07102 1.33523 0.903409C1.61932 0.732954 1.93324 0.647727 2.27699 0.647727C2.62358 0.647727 2.9375 0.732954 3.21875 0.903409C3.50284 1.07102 3.72869 1.29687 3.89631 1.58097C4.06676 1.86222 4.15199 2.17614 4.15199 2.52273C4.15199 2.86648 4.06676 3.1804 3.89631 3.46449C3.72869 3.74858 3.50284 3.97585 3.21875 4.14631C2.9375 4.31392 2.62358 4.39773 2.27699 4.39773Z" fill="#A3A3A3"/>
</svg>
