<svg width="20" height="20" viewBox="0 0 20 20" fill="none" xmlns="http://www.w3.org/2000/svg">
<path d="M10 2.5C5.86 2.5 2.5 5.86 2.5 10C2.5 14.14 5.86 17.5 10 17.5C14.14 17.5 17.5 14.14 17.5 10C17.5 5.86 14.14 2.5 10 2.5ZM4 10C4 9.5425 4.06 9.0925 4.1575 8.665L7.7425 12.25V13C7.7425 13.825 8.4175 14.5 9.2425 14.5V15.9475C6.295 15.5725 4 13.0525 4 10ZM14.4175 14.05C14.2225 13.4425 13.6675 13 12.9925 13H12.2425V10.75C12.2425 10.3375 11.905 10 11.4925 10H6.9925V8.5H8.4925C8.905 8.5 9.2425 8.1625 9.2425 7.75V6.25H10.7425C11.5675 6.25 12.2425 5.575 12.2425 4.75V4.4425C14.44 5.3275 16 7.4875 16 10C16 11.56 15.3925 12.985 14.4175 14.05Z" fill="#4D5761"/>
</svg>
