<svg width="19" height="17" viewBox="0 0 19 17" fill="none" stroke="#4D5761" xmlns="http://www.w3.org/2000/svg">
<path fill-rule="evenodd" clip-rule="evenodd" d="M2.17212 3.17196C2.92223 2.42207 3.93946 2.00081 5.00012 2.00081C6.06078 2.00081 7.07801 2.42207 7.82812 3.17196L9.00012 4.34296L10.1721 3.17196C10.5411 2.78992 10.9825 2.48519 11.4705 2.27555C11.9585 2.06592 12.4834 1.95557 13.0145 1.95096C13.5456 1.94634 14.0723 2.04755 14.5639 2.24867C15.0555 2.4498 15.5021 2.74681 15.8777 3.12238C16.2533 3.49795 16.5503 3.94456 16.7514 4.43614C16.9525 4.92773 17.0537 5.45445 17.0491 5.98556C17.0445 6.51668 16.9342 7.04156 16.7245 7.52958C16.5149 8.01759 16.2102 8.45897 15.8281 8.82796L9.00012 15.657L2.17212 8.82796C1.42224 8.07785 1.00098 7.06061 1.00098 5.99996C1.00098 4.9393 1.42224 3.92207 2.17212 3.17196V3.17196Z" stroke-width="2" stroke-linejoin="round"/>
</svg>
