<svg width="32" height="32" viewBox="0 0 32 32" fill="none" xmlns="http://www.w3.org/2000/svg">
<rect width="32" height="32" rx="16" fill="#F9FAFB"/>
<path d="M18.9167 15.1666C19.6071 15.1666 20.1667 14.607 20.1667 13.9166C20.1667 13.2263 19.6071 12.6666 18.9167 12.6666C18.2264 12.6666 17.6667 13.2263 17.6667 13.9166C17.6667 14.607 18.2264 15.1666 18.9167 15.1666Z" fill="#4D5761"/>
<path d="M13.0834 15.1666C13.7738 15.1666 14.3334 14.607 14.3334 13.9166C14.3334 13.2263 13.7738 12.6666 13.0834 12.6666C12.3931 12.6666 11.8334 13.2263 11.8334 13.9166C11.8334 14.607 12.3931 15.1666 13.0834 15.1666Z" fill="#4D5761"/>
<path d="M16.0001 19.3333C14.7667 19.3333 13.7084 18.6583 13.1251 17.6666H11.7334C12.4001 19.375 14.0584 20.5833 16.0001 20.5833C17.9417 20.5833 19.6001 19.375 20.2667 17.6666H18.8751C18.3001 18.6583 17.2334 19.3333 16.0001 19.3333ZM15.9917 7.66663C11.3917 7.66663 7.66675 11.4 7.66675 16C7.66675 20.6 11.3917 24.3333 15.9917 24.3333C20.6001 24.3333 24.3334 20.6 24.3334 16C24.3334 11.4 20.6001 7.66663 15.9917 7.66663ZM16.0001 22.6666C12.3167 22.6666 9.33341 19.6833 9.33341 16C9.33341 12.3166 12.3167 9.33329 16.0001 9.33329C19.6834 9.33329 22.6667 12.3166 22.6667 16C22.6667 19.6833 19.6834 22.6666 16.0001 22.6666Z" fill="#4D5761"/>
</svg>
