<svg width="20" height="20" viewBox="0 0 20 20" fill="none" xmlns="http://www.w3.org/2000/svg">
<path d="M9.58333 6.25007C9.58333 6.94043 9.02369 7.50007 8.33333 7.50007C7.64298 7.50007 7.08333 6.94043 7.08333 6.25007C7.08333 5.55972 7.64298 5.00007 8.33333 5.00007C9.02369 5.00007 9.58333 5.55972 9.58333 6.25007Z" fill="#4D5761"/>
<path fill-rule="evenodd" clip-rule="evenodd" d="M6.03366 2.66675C5.11318 2.66675 4.36699 3.41294 4.36699 4.33341V12.6667C4.36699 13.5872 5.11319 14.3334 6.03366 14.3334H17.167C18.0875 14.3334 18.8337 13.5872 18.8337 12.6667V4.33341C18.8337 3.41294 18.0875 2.66675 17.167 2.66675H6.03366ZM6.03366 4.33341L17.167 4.33341L17.167 10.199L15.2703 8.33241C14.9393 8.00671 14.406 8.01433 14.0845 8.34935L11.4313 11.1141L9.75393 9.87608C9.42425 9.63275 8.96659 9.6652 8.67453 9.95261L6.26611 12.3228C6.16133 12.4259 6.09161 12.5438 6.0529 12.6667H6.03366V4.33341Z" fill="#4D5761"/>
<path d="M2.83366 7.50008C2.83366 7.03984 2.46056 6.66675 2.00033 6.66675C1.54009 6.66675 1.16699 7.03984 1.16699 7.50008V16.5001C1.16699 16.9603 1.54009 17.3334 2.00033 17.3334H12.667C13.1272 17.3334 13.5003 16.9603 13.5003 16.5001C13.5003 16.0398 13.1272 15.6667 12.667 15.6667H2.83366V7.50008Z" fill="#4D5761"/>
</svg>
