<svg width="32" height="32" viewBox="0 0 32 32" fill="none" xmlns="http://www.w3.org/2000/svg">
<rect width="32" height="32" rx="16" fill="#F9FAFB"/>
<path d="M8.90717 21.5634C8.61428 21.8563 8.61428 22.3312 8.90717 22.6241C9.20006 22.917 9.67494 22.917 9.96783 22.6241L8.90717 21.5634ZM13.1875 18.3438L13.7178 17.8134C13.4249 17.5205 12.9501 17.5205 12.6572 17.8134L13.1875 18.3438ZM15.0625 20.2188L14.5322 20.7491C14.8251 21.042 15.2999 21.042 15.5928 20.7491L15.0625 20.2188ZM19.2812 16L19.8116 15.4697C19.5187 15.1768 19.0438 15.1768 18.7509 15.4697L19.2812 16ZM22.5009 20.2803C22.7938 20.5732 23.2687 20.5732 23.5616 20.2803C23.8545 19.9874 23.8545 19.5126 23.5616 19.2197L22.5009 20.2803ZM9.96783 22.6241L13.7178 18.8741L12.6572 17.8134L8.90717 21.5634L9.96783 22.6241ZM12.6572 18.8741L14.5322 20.7491L15.5928 19.6884L13.7178 17.8134L12.6572 18.8741ZM15.5928 20.7491L19.8116 16.5303L18.7509 15.4697L14.5322 19.6884L15.5928 20.7491ZM18.7509 16.5303L22.5009 20.2803L23.5616 19.2197L19.8116 15.4697L18.7509 16.5303ZM11.3125 9.25H20.6875V7.75H11.3125V9.25ZM22.75 11.3125V20.6875H24.25V11.3125H22.75ZM20.6875 22.75H11.3125V24.25H20.6875V22.75ZM9.25 20.6875V11.3125H7.75V20.6875H9.25ZM11.3125 22.75C10.1734 22.75 9.25 21.8266 9.25 20.6875H7.75C7.75 22.655 9.34499 24.25 11.3125 24.25V22.75ZM22.75 20.6875C22.75 21.8266 21.8266 22.75 20.6875 22.75V24.25C22.655 24.25 24.25 22.655 24.25 20.6875H22.75ZM20.6875 9.25C21.8266 9.25 22.75 10.1734 22.75 11.3125H24.25C24.25 9.34499 22.655 7.75 20.6875 7.75V9.25ZM11.3125 7.75C9.34499 7.75 7.75 9.34499 7.75 11.3125H9.25C9.25 10.1734 10.1734 9.25 11.3125 9.25V7.75ZM13.375 12.7188C13.375 13.0812 13.0812 13.375 12.7188 13.375V14.875C13.9096 14.875 14.875 13.9096 14.875 12.7188H13.375ZM12.7188 13.375C12.3563 13.375 12.0625 13.0812 12.0625 12.7188H10.5625C10.5625 13.9096 11.5279 14.875 12.7188 14.875V13.375ZM12.0625 12.7188C12.0625 12.3563 12.3563 12.0625 12.7188 12.0625V10.5625C11.5279 10.5625 10.5625 11.5279 10.5625 12.7188H12.0625ZM12.7188 12.0625C13.0812 12.0625 13.375 12.3563 13.375 12.7188H14.875C14.875 11.5279 13.9096 10.5625 12.7188 10.5625V12.0625Z" fill="#4D5761"/>
</svg>
