<svg width="40" height="40" viewBox="0 0 40 40" fill="none" xmlns="http://www.w3.org/2000/svg">
<rect width="40" height="40" rx="20" fill="#F9FAFB"/>
<path d="M26.92 16.5H27.7894L27.3522 15.7486C26.3329 13.9968 24.7081 12.6367 22.752 11.967L21.542 11.5527L22.1501 12.6778C22.7294 13.7493 23.175 14.9108 23.4856 16.124L23.5819 16.5H23.97H26.92ZM20.4112 11.7556L20 11.161L19.5888 11.7556C18.7299 12.9974 18.0566 14.3746 17.6112 15.856L17.4175 16.5H18.09H21.91H22.5825L22.3888 15.856C21.9434 14.3746 21.2701 12.9974 20.4112 11.7556ZM11.7749 22.1213L11.8696 22.5H12.26H15.64H16.2043L16.1364 21.9398C16.0575 21.2888 16 20.6512 16 20C16 19.3488 16.0575 18.7112 16.1364 18.0602L16.2043 17.5H15.64H12.26H11.8696L11.7749 17.8787C11.607 18.5505 11.5 19.2617 11.5 20C11.5 20.7383 11.607 21.4495 11.7749 22.1213ZM13.08 23.5H12.2133L12.6472 24.2503C13.6672 26.0141 15.293 27.3637 17.248 28.033L18.458 28.4473L17.8499 27.3222C17.2706 26.2506 16.825 25.0892 16.5144 23.876L16.4181 23.5H16.03H13.08ZM16.03 16.5H16.4181L16.5144 16.124C16.825 14.9108 17.2706 13.7493 17.8499 12.6778L18.458 11.5527L17.248 11.967C15.293 12.6363 13.6672 13.9859 12.6472 15.7497L12.2133 16.5H13.08H16.03ZM19.5888 28.2444L20 28.839L20.4112 28.2444C21.2701 27.0026 21.9434 25.6254 22.3888 24.144L22.5825 23.5H21.91H18.09H17.4175L17.6112 24.144C18.0566 25.6254 18.7299 27.0026 19.5888 28.2444ZM22.34 22.5H22.7764L22.8354 22.0676C22.9266 21.3991 23 20.7133 23 20C23 19.287 22.9267 18.5914 22.8353 17.9314L22.7755 17.5H22.34H17.66H17.2245L17.1647 17.9314C17.0733 18.5914 17 19.287 17 20C17 20.7133 17.0734 21.3991 17.1646 22.0676L17.2236 22.5H17.66H22.34ZM22.1501 27.3222L21.542 28.4473L22.752 28.033C24.7081 27.3633 26.3329 26.0032 27.3522 24.2514L27.7894 23.5H26.92H23.97H23.5819L23.4856 23.876C23.175 25.0892 22.7294 26.2506 22.1501 27.3222ZM23.8636 21.9398L23.7957 22.5H24.36H27.74H28.1304L28.2251 22.1213C28.393 21.4495 28.5 20.7383 28.5 20C28.5 19.2617 28.393 18.5505 28.2251 17.8787L28.1304 17.5H27.74H24.36H23.7957L23.8636 18.0602C23.9425 18.7112 24 19.3488 24 20C24 20.6512 23.9425 21.2888 23.8636 21.9398ZM10.5 20C10.5 14.7555 14.7468 10.5 19.99 10.5C25.2442 10.5 29.5 14.7565 29.5 20C29.5 25.2435 25.2442 29.5 19.99 29.5C14.7468 29.5 10.5 25.2445 10.5 20Z" fill="#0D121C" stroke="#4D5761"/>
</svg>
