<svg width="40" height="40" viewBox="0 0 40 40" fill="none" xmlns="http://www.w3.org/2000/svg">
<rect width="40" height="40" rx="20" fill="#F9FAFB"/>
<path d="M19.6056 27.1873L19.9977 27.6907L20.3927 27.1895C21.4627 25.8318 22.7298 24.0589 23.7321 22.254C24.7237 20.4684 25.5 18.5755 25.5 17C25.5 13.9639 23.0361 11.5 20 11.5C16.9639 11.5 14.5 13.9639 14.5 17C14.5 18.5619 15.2877 20.461 16.283 22.2505C17.2899 24.0608 18.5564 25.8405 19.6056 27.1873ZM20 29.2395C19.8179 29.0266 19.5768 28.7397 19.2945 28.3919C18.6447 27.5913 17.7791 26.4706 16.9145 25.1891C16.0489 23.9062 15.1905 22.4713 14.5501 21.0417C13.9066 19.6055 13.5 18.2113 13.5 17C13.5 13.4061 16.4061 10.5 20 10.5C23.5939 10.5 26.5 13.4061 26.5 17C26.5 18.2113 26.0934 19.6055 25.4499 21.0417C24.8095 22.4713 23.9511 23.9062 23.0855 25.1891C22.2209 26.4706 21.3553 27.5913 20.7055 28.3919C20.4232 28.7397 20.1821 29.0266 20 29.2395ZM22 17C22 18.1046 21.1046 19 20 19C18.8954 19 18 18.1046 18 17C18 15.8954 18.8954 15 20 15C21.1046 15 22 15.8954 22 17Z" fill="#0D121C" stroke="#4D5761"/>
</svg>
