<svg width="20" height="20" viewBox="0 0 20 20" fill="none" xmlns="http://www.w3.org/2000/svg">
<path fill-rule="evenodd" clip-rule="evenodd" d="M10.0001 18.3334C14.6025 18.3334 18.3334 14.6025 18.3334 10.0001C18.3334 5.39771 14.6025 1.66675 10.0001 1.66675C5.39771 1.66675 1.66675 5.39771 1.66675 10.0001C1.66675 14.6025 5.39771 18.3334 10.0001 18.3334ZM7.91221 12.0302C7.65416 11.8038 7.26136 11.8279 7.03296 12.0849C6.80363 12.3429 6.82687 12.7379 7.08486 12.9672L7.31407 13.1434C7.44935 13.2375 7.64344 13.3589 7.89148 13.4791C8.38759 13.7197 9.10572 13.9584 10.0001 13.9584C10.8945 13.9584 11.6126 13.7197 12.1087 13.4791C12.3567 13.3589 12.5508 13.2375 12.6861 13.1434C12.7538 13.0962 12.8072 13.0557 12.8455 13.0253L12.9153 12.9672C13.1733 12.7379 13.1965 12.3429 12.9672 12.0849C12.7388 11.8279 12.346 11.8038 12.088 12.0302L11.9723 12.1172C11.8829 12.1794 11.745 12.2663 11.5634 12.3544C11.2001 12.5305 10.6682 12.7084 10.0001 12.7084C9.33196 12.7084 8.80008 12.5305 8.43682 12.3544C8.25517 12.2663 8.11723 12.1794 8.0279 12.1172L7.91221 12.0302ZM14.1667 8.33342C14.1667 8.79365 13.7937 9.16675 13.3334 9.16675C12.8732 9.16675 12.5001 8.79365 12.5001 8.33342C12.5001 7.87318 12.8732 7.50008 13.3334 7.50008C13.7937 7.50008 14.1667 7.87318 14.1667 8.33342ZM6.66675 9.16675C7.12699 9.16675 7.50008 8.79365 7.50008 8.33342C7.50008 7.87318 7.12699 7.50008 6.66675 7.50008C6.20651 7.50008 5.83342 7.87318 5.83342 8.33342C5.83342 8.79365 6.20651 9.16675 6.66675 9.16675Z" fill="#24BEAC"/>
</svg>
